<?xml version="1.0" encoding="UTF-8" standalone="no"?>
<!DOCTYPE svg PUBLIC "-//W3C//DTD SVG 1.1//EN" "http://www.w3.org/Graphics/SVG/1.1/DTD/svg11.dtd">
<svg width="100%" height="100%" viewBox="0 0 2523 685" version="1.1" xmlns="http://www.w3.org/2000/svg" xmlns:xlink="http://www.w3.org/1999/xlink" xml:space="preserve" xmlns:serif="http://www.serif.com/" style="fill-rule:evenodd;clip-rule:evenodd;stroke-linejoin:round;stroke-miterlimit:2;">
    <g transform="matrix(1,0,0,1,-260.747,-3878.95)">
        <g transform="matrix(0.291966,0,0,0.291966,41.0196,3767)">
            <path d="M1330.86,2294.56L1330.86,2726.53L945.333,2726.53C894.212,2726.53 845.184,2706.22 809.035,2670.08C772.887,2633.93 752.579,2584.9 752.579,2533.78L752.579,798.939L1138.1,798.939L1138.1,383.423L1716.38,383.423L1716.38,798.939L1909.14,798.939L1909.14,383.423L2307.83,383.423C2355.46,383.423 2401.14,402.344 2434.82,436.024C2468.5,469.703 2487.42,515.383 2487.42,563.013L2487.42,1910.56C2487.42,2126.72 2316.15,2302.89 2101.9,2310.74L2101.9,2726.53L1523.62,2726.53L1523.62,2294.56C1493.47,2305.21 1461.03,2311.01 1427.24,2311.01C1393.45,2311.01 1361.01,2305.21 1330.86,2294.56ZM1138.1,991.698L945.346,991.698L945.346,2424.35C945.346,2453.37 956.874,2481.2 977.395,2501.72C997.916,2522.24 1025.75,2533.77 1054.77,2533.77L1138.1,2533.77L1138.1,991.698ZM1523.62,2021.88L1523.62,576.181L1330.86,576.181L1330.86,2021.88C1330.86,2047.44 1341.02,2071.95 1359.09,2090.02C1377.16,2108.1 1401.68,2118.25 1427.24,2118.25L1427.24,2118.25C1452.8,2118.25 1477.32,2108.1 1495.39,2090.02C1513.46,2071.95 1523.62,2047.44 1523.62,2021.88ZM1909.14,991.697L1716.38,991.697L1716.38,2533.77L1909.14,2533.77L1909.14,991.697ZM2101.9,2118.26C2153.02,2118.26 2202.05,2097.95 2238.2,2061.8C2274.35,2025.66 2294.65,1976.63 2294.65,1925.51L2294.65,576.185L2101.9,576.185L2101.9,2118.26Z" style="fill:rgb(137,129,116);"/>
        </g>
        <g transform="matrix(0.521693,0,0,0.521693,-3214.32,2727.42)">
            <g transform="matrix(638.335,0,0,638.335,11493.3,3072)">
            </g>
            <text x="7937.93px" y="3072px" style="font-family:'ProximaNova-Bold', 'Proxima Nova';font-weight:700;font-size:638.335px;fill:rgb(137,129,116);">R<tspan x="8394.13px 8907.79px 9304.63px 9787.01px 10238.7px 10680.3px 11056.7px " y="3072px 3072px 3072px 3072px 3072px 3072px 3072px ">UPAKATA</tspan></text>
        </g>
    </g>
</svg>
